<svg xmlns="http://www.w3.org/2000/svg" width="2" height="5" fill="none"><path fill="#EEE" d="M.924 2.418c.29-.007.46-.104.446-.445 0-.12-.005-.18-.01-.3-.01-.284-.117-.427-.382-.42L.63 1.26l.024 1.164.27-.007ZM.978.933c.495-.013.716.227.735.694.005.102.01.153.015.256.015.346-.103.567-.382.662.304.075.426.303.441.64.01.195.015.293.02.49.01.139.02.268.088.374-.157.006-.23.01-.387.015-.045-.088-.07-.168-.074-.38-.01-.197-.01-.296-.02-.493-.01-.355-.19-.461-.495-.453l-.26.006.025 1.344-.378.005L.272.947C.552.944.694.941.978.933Z"/></svg>