<svg xmlns="http://www.w3.org/2000/svg" width="3" height="4" fill="none"><path fill="#EEE" d="M1.894 1.777c.284.048.47-.014.524-.35.02-.12.03-.18.044-.298.05-.28-.034-.442-.294-.486a27.853 27.853 0 0 1-.343-.059c-.078.46-.123.688-.201 1.147.108.019.162.029.27.046ZM2.227.33c.495.082.662.36.593.822l-.039.253c-.049.342-.206.538-.5.578.284.131.363.378.314.712l-.074.484c-.024.138-.04.268.01.384l-.378-.058c-.029-.096-.039-.179-.004-.387.029-.196.049-.294.078-.489.054-.35-.098-.488-.402-.54a23.086 23.086 0 0 1-.255-.043L1.34 3.37c-.152-.026-.226-.04-.373-.067L1.531.208c.28.05.417.075.696.122Z"/></svg>